<svg width="18" height="18" viewBox="0 0 18 18" fill="none" xmlns="http://www.w3.org/2000/svg">
<path d="M12.097 9L17.0771 3.88278C17.6882 3.25483 17.6882 2.2367 17.0771 1.60824L15.9703 0.470966C15.3592 -0.156989 14.3683 -0.156989 13.7567 0.470966L8.77652 5.58818L3.79636 0.470966C3.18523 -0.156989 2.19437 -0.156989 1.58274 0.470966L0.47593 1.60824C-0.135206 2.23619 -0.135206 3.25432 0.47593 3.88278L5.45608 9L0.47593 14.1172C-0.135206 14.7452 -0.135206 15.7633 0.47593 16.3918L1.58274 17.529C2.19388 18.157 3.18523 18.157 3.79636 17.529L8.77652 12.4118L13.7567 17.529C14.3678 18.157 15.3592 18.157 15.9703 17.529L17.0771 16.3918C17.6882 15.7638 17.6882 14.7457 17.0771 14.1172L12.097 9Z" fill="#F7A933"/>
</svg>
