<svg width="33" height="42" viewBox="0 0 33 42" fill="none" xmlns="http://www.w3.org/2000/svg">
<path d="M20.6802 10.3366C23.319 10.3366 25.4582 8.17098 25.4582 5.49958C25.4582 2.82817 23.319 0.662567 20.6802 0.662567C18.0413 0.662567 15.9021 2.82817 15.9021 5.49958C15.9021 8.17098 18.0413 10.3366 20.6802 10.3366Z" fill="#484444"/>
<path d="M28.0143 17.7631C30.6532 17.7631 32.7924 15.5975 32.7924 12.9261C32.7924 10.2547 30.6532 8.08905 28.0143 8.08905C25.3755 8.08905 23.2363 10.2547 23.2363 12.9261C23.2363 15.5975 25.3755 17.7631 28.0143 17.7631Z" fill="#484444"/>
<path d="M23.968 8.79428C24.0853 8.69801 24.2265 8.63638 24.3762 8.61619C24.4569 8.6022 24.5397 8.60925 24.617 8.63667C24.6943 8.66409 24.7633 8.71098 24.8177 8.77291C25.0025 8.9795 24.9673 9.31966 24.7702 9.59926L25.4088 10.2457C26.0439 9.51556 26.1723 8.53249 25.6674 7.96437C25.5254 7.81577 25.3512 7.70269 25.1585 7.63407C24.9658 7.56545 24.76 7.54317 24.5574 7.569C24.096 7.61743 23.6632 7.81834 23.3259 8.14068L23.968 8.79428Z" fill="#484444"/>
<path d="M7.81838 7.84149C8.28854 7.35765 8.82611 6.94605 9.41399 6.61977C9.94178 6.32546 10.5251 6.14762 11.1257 6.09796C11.7201 6.05828 12.3156 6.15572 12.8673 6.38291C13.5145 6.66209 14.0986 7.07171 14.5843 7.58682C15.0734 8.06224 15.4733 8.62338 15.7648 9.24308C16.0098 9.76566 16.1366 10.3369 16.136 10.9154C16.131 11.4815 15.998 12.0389 15.7472 12.5449C15.4653 13.1108 15.0925 13.6253 14.6442 14.0676C14.3054 14.417 13.9104 14.7055 13.476 14.9207L19.6333 21.1539C19.5368 21.3238 19.4298 21.4874 19.3131 21.6437C19.1539 21.8637 18.9774 22.0704 18.7854 22.2617C18.6227 22.4315 18.4462 22.587 18.2576 22.7265C18.1023 22.8433 17.9211 22.9198 17.7298 22.9491C17.5496 22.9722 17.3667 22.9432 17.2021 22.8654C16.9825 22.7559 16.7841 22.6076 16.6162 22.4273L6.51127 12.1959C6.30641 12.006 6.16344 11.7576 6.10137 11.4835C6.05312 11.221 6.05312 10.9517 6.10137 10.6892C6.21658 10.1988 6.40777 9.72994 6.66784 9.30007C6.98814 8.76605 7.37481 8.27585 7.81838 7.84149ZM12.3149 12.5521C13.0468 11.8052 12.9752 10.9884 12.1003 10.1015C11.6429 9.63667 11.2207 9.38912 10.8073 9.34459C10.5976 9.3288 10.3871 9.36239 10.1924 9.44272C9.99768 9.52306 9.82397 9.64796 9.68491 9.80764C9.55903 9.92854 9.45171 10.0678 9.36649 10.2208C9.29771 10.3465 9.24171 10.479 9.19937 10.6162L11.5638 13.008C11.6981 12.9612 11.8276 12.9015 11.9508 12.8299C12.0841 12.7545 12.2066 12.661 12.3149 12.5521Z" fill="#525990"/>
<path d="M15.1527 15.2662C15.6256 14.7829 16.1655 14.372 16.7554 14.0462C17.2832 13.7519 17.8665 13.5741 18.4671 13.5244C19.0615 13.4849 19.6569 13.5824 20.2087 13.8094C20.856 14.0883 21.4402 14.498 21.9257 15.0133C22.4143 15.4884 22.8142 16.0489 23.1062 16.6678C23.3502 17.1913 23.4769 17.763 23.4774 18.3418C23.4712 18.9078 23.3383 19.465 23.0886 19.9714C22.8072 20.5371 22.435 21.0517 21.9873 21.4941C21.6479 21.843 21.2523 22.1309 20.8174 22.3454L24.9182 26.4967C24.8199 26.6655 24.713 26.829 24.598 26.9865C24.4378 27.2057 24.2613 27.4123 24.0702 27.6045C23.9071 27.7737 23.7306 27.9292 23.5425 28.0693C23.3865 28.1848 23.2056 28.2611 23.0147 28.2919C22.8345 28.3138 22.6519 28.2848 22.4869 28.2082C22.2665 28.0995 22.0678 27.9503 21.9011 27.7683L13.8456 19.6223C13.6418 19.4319 13.4996 19.1836 13.4375 18.91C13.3892 18.6469 13.3892 18.377 13.4375 18.1139C13.5532 17.6242 13.7444 17.156 14.0039 16.7265C14.3246 16.1928 14.7106 15.7021 15.1527 15.2662ZM19.6511 19.975C20.3888 19.2305 20.3172 18.4125 19.4364 17.5208C18.9773 17.056 18.5463 16.8085 18.1416 16.7639C17.9324 16.7482 17.7223 16.7817 17.5279 16.8617C17.3336 16.9417 17.1601 17.0661 17.021 17.2252C16.8951 17.3483 16.7884 17.49 16.7044 17.6455C16.6348 17.7709 16.5788 17.9034 16.5372 18.0409L18.8999 20.4309C19.0337 20.3843 19.1627 20.3247 19.2851 20.2528C19.4199 20.1796 19.5432 20.0866 19.6511 19.9767V19.975Z" fill="#525990"/>
<path d="M28.0144 29.6917C28.095 29.7903 28.1993 29.8662 28.3173 29.9121C28.4354 29.9579 28.5631 29.9722 28.6881 29.9535C28.9671 29.8774 29.2178 29.7201 29.4094 29.5012C29.5375 29.3688 29.6551 29.2265 29.7613 29.0755C29.8634 28.9368 29.9541 28.7896 30.0322 28.6357C30.2037 28.654 30.3725 28.6923 30.5353 28.7496C30.7208 28.8216 30.8879 28.9348 31.0244 29.0809C31.1775 29.2272 31.2952 29.4073 31.3684 29.6071C31.4416 29.8069 31.4684 30.0212 31.4466 30.2331C31.4091 30.6784 31.0883 31.2067 30.4843 31.8182C29.7478 32.5662 29.0124 32.9716 28.2782 33.0346C27.5441 33.0975 26.7999 32.7472 26.0458 31.9838L18.657 24.5039C18.7239 24.3846 18.833 24.2243 18.9719 24.0195C19.1222 23.8061 19.2899 23.606 19.4733 23.4211C19.7569 23.1018 20.1222 22.8682 20.5289 22.7461C20.8649 22.6713 23.2539 24.8832 23.6726 25.3053L24.4783 26.121L26.1249 24.4522C26.2942 24.5057 26.4584 24.5743 26.6158 24.6571C26.8117 24.7583 26.99 24.8912 27.1435 25.0506C27.4379 25.3475 27.5845 25.6277 27.5833 25.8912C27.5804 26.0285 27.5498 26.1637 27.4936 26.2886C27.4373 26.4135 27.3565 26.5256 27.2561 26.6179L26.1126 27.7755L28.0144 29.6917Z" fill="#525990"/>
<path d="M28.0144 29.6917C28.095 29.7903 28.1993 29.8662 28.3173 29.9121C28.4354 29.9579 28.5631 29.9722 28.6881 29.9535C28.9671 29.8774 29.2178 29.7201 29.4094 29.5012C29.5375 29.3688 29.6551 29.2265 29.7613 29.0755C29.8634 28.9368 29.9541 28.7896 30.0322 28.6357C30.2037 28.654 30.3725 28.6923 30.5353 28.7496C30.7208 28.8216 30.8879 28.9348 31.0244 29.0809C31.1775 29.2272 31.2952 29.4073 31.3684 29.6071C31.4416 29.8069 31.4684 30.0212 31.4466 30.2331C31.4091 30.6784 31.0883 31.2067 30.4843 31.8182C29.7478 32.5662 29.0124 32.9716 28.2782 33.0346C27.5441 33.0975 26.7999 32.7472 26.0458 31.9838L18.657 24.5039C18.7239 24.3846 18.833 24.2243 18.9719 24.0195C19.1222 23.8061 19.2899 23.606 19.4733 23.4211C19.7569 23.1018 20.1222 22.8682 20.5289 22.7461C20.8649 22.6713 23.2539 24.8832 23.6726 25.3053L24.4783 26.121L26.1249 24.4522C26.2942 24.5057 26.4584 24.5743 26.6158 24.6571C26.8117 24.7583 26.99 24.8912 27.1435 25.0506C27.4379 25.3475 27.5845 25.6277 27.5833 25.8912C27.5804 26.0285 27.5498 26.1637 27.4936 26.2886C27.4373 26.4135 27.3565 26.5256 27.2561 26.6179L26.1126 27.7755L28.0144 29.6917Z" fill="#525990"/>
<path d="M31.8653 2.97777C31.2177 2.61922 30.5072 2.39178 29.7736 2.30814C29.2722 2.26184 28.6073 2.38294 28.3663 3.13093C28.1252 3.87892 28.1745 7.09529 28.1745 7.09529C28.5418 7.08745 28.9083 7.13181 29.2635 7.22708C29.6925 7.35358 30.1013 7.54191 30.4773 7.78629C30.4773 7.78629 32.3034 5.22531 32.5374 4.47554C32.7713 3.72576 32.3016 3.23423 31.8653 2.97777Z" fill="#525990"/>
<path d="M21.6353 30.1886C21.6353 30.1886 19.3483 32.4611 19.3325 32.454C18.5092 32.3471 17.1792 31.4281 10.2004 32.2652L9.89425 31.9624L9.5987 31.6508C10.4255 24.5858 9.51777 23.2394 9.41222 22.406C9.41222 22.406 10.5944 21.17 11.65 20.0765L10.6454 19.0578L8.28104 21.4567C4.76084 22.8013 2.49144 25.2074 1.01193 27.3765C0.946906 27.4665 0.915716 27.577 0.92397 27.6882C1.21248 30.3489 7.58087 33.649 8.0154 33.8716C8.2353 34.3115 11.4951 40.7602 14.1234 41.0505C14.2333 41.0599 14.3428 41.0282 14.4313 40.9615C16.5793 39.4601 18.9472 37.1717 20.2737 33.6098L22.6381 31.2162L21.6353 30.1886Z" fill="#F7A933"/>
</svg>
